<mxfile host="Electron" modified="2023-10-17T16:43:25.699Z" agent="Mozilla/5.0 (Windows NT 10.0; Win64; x64) AppleWebKit/537.36 (KHTML, like Gecko) draw.io/22.0.2 Chrome/114.0.5735.289 Electron/25.8.4 Safari/537.36" etag="DmjzzhWhQ5QxpZXh8zRX" version="22.0.2" type="device">
  <diagram name="Page-1" id="AWWO3axPsZoU5Cn8OMFk">
    <mxGraphModel dx="2508" dy="820" grid="1" gridSize="10" guides="1" tooltips="1" connect="1" arrows="1" fold="1" page="1" pageScale="1" pageWidth="850" pageHeight="1100" math="0" shadow="0">
      <root>
        <mxCell id="0" />
        <mxCell id="1" parent="0" />
        <mxCell id="GapU7UESEBE7MIA_pE_8-1" value="" style="group" parent="1" vertex="1" connectable="0">
          <mxGeometry x="280" y="70" width="160" height="80" as="geometry" />
        </mxCell>
        <mxCell id="GapU7UESEBE7MIA_pE_8-2" value="Display Login Screen" style="rounded=1;whiteSpace=wrap;html=1;" parent="GapU7UESEBE7MIA_pE_8-1" vertex="1">
          <mxGeometry y="20" width="160" height="60" as="geometry" />
        </mxCell>
        <mxCell id="GapU7UESEBE7MIA_pE_8-3" value="IDLE" style="rounded=1;whiteSpace=wrap;html=1;" parent="GapU7UESEBE7MIA_pE_8-1" vertex="1">
          <mxGeometry width="160" height="20" as="geometry" />
        </mxCell>
        <mxCell id="GapU7UESEBE7MIA_pE_8-4" value="" style="endArrow=classic;html=1;rounded=0;exitX=0.5;exitY=1;exitDx=0;exitDy=0;entryX=0.5;entryY=0;entryDx=0;entryDy=0;" parent="1" source="GapU7UESEBE7MIA_pE_8-2" target="GapU7UESEBE7MIA_pE_8-5" edge="1">
          <mxGeometry width="50" height="50" relative="1" as="geometry">
            <mxPoint x="550" y="440" as="sourcePoint" />
            <mxPoint x="360" y="270" as="targetPoint" />
          </mxGeometry>
        </mxCell>
        <mxCell id="GapU7UESEBE7MIA_pE_8-5" value="Waiting for Username / Password" style="rounded=1;whiteSpace=wrap;html=1;" parent="1" vertex="1">
          <mxGeometry x="290" y="240" width="140" height="60" as="geometry" />
        </mxCell>
        <mxCell id="GapU7UESEBE7MIA_pE_8-6" value="Defaults to &lt;br&gt;Regular Login" style="text;html=1;strokeColor=none;fillColor=none;align=center;verticalAlign=middle;whiteSpace=wrap;rounded=0;" parent="1" vertex="1">
          <mxGeometry x="249" y="175" width="140" height="30" as="geometry" />
        </mxCell>
        <mxCell id="GapU7UESEBE7MIA_pE_8-7" value="" style="endArrow=classic;html=1;rounded=0;exitX=0.5;exitY=1;exitDx=0;exitDy=0;" parent="1" source="GapU7UESEBE7MIA_pE_8-12" edge="1">
          <mxGeometry width="50" height="50" relative="1" as="geometry">
            <mxPoint x="460" y="500" as="sourcePoint" />
            <mxPoint x="360" y="430" as="targetPoint" />
          </mxGeometry>
        </mxCell>
        <mxCell id="GapU7UESEBE7MIA_pE_8-8" value="Credentials entered, check if correct" style="text;html=1;strokeColor=none;fillColor=none;align=center;verticalAlign=middle;whiteSpace=wrap;rounded=0;" parent="1" vertex="1">
          <mxGeometry x="350" y="320" width="140" height="30" as="geometry" />
        </mxCell>
        <mxCell id="GapU7UESEBE7MIA_pE_8-9" value="Display Home Menu" style="rounded=1;whiteSpace=wrap;html=1;" parent="1" vertex="1">
          <mxGeometry x="300" y="500" width="120" height="60" as="geometry" />
        </mxCell>
        <mxCell id="GapU7UESEBE7MIA_pE_8-10" value="" style="endArrow=classic;html=1;rounded=0;exitX=0.5;exitY=1;exitDx=0;exitDy=0;entryX=0.5;entryY=0;entryDx=0;entryDy=0;" parent="1" source="GapU7UESEBE7MIA_pE_8-12" target="GapU7UESEBE7MIA_pE_8-9" edge="1">
          <mxGeometry width="50" height="50" relative="1" as="geometry">
            <mxPoint x="520" y="560" as="sourcePoint" />
            <mxPoint x="570" y="510" as="targetPoint" />
          </mxGeometry>
        </mxCell>
        <mxCell id="GapU7UESEBE7MIA_pE_8-11" value="" style="endArrow=classic;html=1;rounded=0;exitX=0.5;exitY=1;exitDx=0;exitDy=0;" parent="1" source="GapU7UESEBE7MIA_pE_8-5" target="GapU7UESEBE7MIA_pE_8-12" edge="1">
          <mxGeometry width="50" height="50" relative="1" as="geometry">
            <mxPoint x="360" y="300" as="sourcePoint" />
            <mxPoint x="360" y="430" as="targetPoint" />
          </mxGeometry>
        </mxCell>
        <mxCell id="GapU7UESEBE7MIA_pE_8-12" value="Validate Username / Password" style="rounded=1;whiteSpace=wrap;html=1;" parent="1" vertex="1">
          <mxGeometry x="300" y="370" width="120" height="60" as="geometry" />
        </mxCell>
        <mxCell id="GapU7UESEBE7MIA_pE_8-13" value="Correct info, allow homepage access" style="text;html=1;strokeColor=none;fillColor=none;align=center;verticalAlign=middle;whiteSpace=wrap;rounded=0;" parent="1" vertex="1">
          <mxGeometry x="350" y="450" width="140" height="30" as="geometry" />
        </mxCell>
        <mxCell id="GapU7UESEBE7MIA_pE_8-14" value="" style="endArrow=classic;html=1;rounded=0;exitX=1;exitY=0.5;exitDx=0;exitDy=0;entryX=0.5;entryY=0;entryDx=0;entryDy=0;" parent="1" source="GapU7UESEBE7MIA_pE_8-2" target="GapU7UESEBE7MIA_pE_8-15" edge="1">
          <mxGeometry width="50" height="50" relative="1" as="geometry">
            <mxPoint x="570" y="160" as="sourcePoint" />
            <mxPoint x="600" y="180" as="targetPoint" />
            <Array as="points">
              <mxPoint x="650" y="120" />
            </Array>
          </mxGeometry>
        </mxCell>
        <mxCell id="GapU7UESEBE7MIA_pE_8-15" value="Waiting for Admin Username / Password" style="rounded=1;whiteSpace=wrap;html=1;" parent="1" vertex="1">
          <mxGeometry x="585" y="240" width="130" height="60" as="geometry" />
        </mxCell>
        <mxCell id="GapU7UESEBE7MIA_pE_8-16" value="Admin Login Selected" style="text;html=1;strokeColor=none;fillColor=none;align=center;verticalAlign=middle;whiteSpace=wrap;rounded=0;" parent="1" vertex="1">
          <mxGeometry x="470" y="90" width="140" height="30" as="geometry" />
        </mxCell>
        <mxCell id="GapU7UESEBE7MIA_pE_8-17" value="" style="endArrow=classic;html=1;rounded=0;exitX=0.5;exitY=0;exitDx=0;exitDy=0;entryX=0.971;entryY=1.003;entryDx=0;entryDy=0;entryPerimeter=0;" parent="1" source="GapU7UESEBE7MIA_pE_8-18" target="GapU7UESEBE7MIA_pE_8-2" edge="1">
          <mxGeometry width="50" height="50" relative="1" as="geometry">
            <mxPoint x="610" y="390" as="sourcePoint" />
            <mxPoint x="520" y="160" as="targetPoint" />
            <Array as="points">
              <mxPoint x="500" y="400" />
              <mxPoint x="500" y="150" />
            </Array>
          </mxGeometry>
        </mxCell>
        <mxCell id="GapU7UESEBE7MIA_pE_8-18" value="Invalid Credentials" style="text;html=1;strokeColor=none;fillColor=none;align=center;verticalAlign=middle;whiteSpace=wrap;rounded=0;" parent="1" vertex="1">
          <mxGeometry x="430" y="400" width="140" height="30" as="geometry" />
        </mxCell>
        <mxCell id="GapU7UESEBE7MIA_pE_8-19" value="Validate Admin Username / Password" style="rounded=1;whiteSpace=wrap;html=1;" parent="1" vertex="1">
          <mxGeometry x="590" y="370" width="120" height="60" as="geometry" />
        </mxCell>
        <mxCell id="GapU7UESEBE7MIA_pE_8-20" value="" style="endArrow=classic;html=1;rounded=0;exitX=0.5;exitY=1;exitDx=0;exitDy=0;" parent="1" source="GapU7UESEBE7MIA_pE_8-15" target="GapU7UESEBE7MIA_pE_8-19" edge="1">
          <mxGeometry width="50" height="50" relative="1" as="geometry">
            <mxPoint x="730" y="360" as="sourcePoint" />
            <mxPoint x="780" y="310" as="targetPoint" />
          </mxGeometry>
        </mxCell>
        <mxCell id="GapU7UESEBE7MIA_pE_8-21" value="Credentials entered, verify them" style="text;html=1;strokeColor=none;fillColor=none;align=center;verticalAlign=middle;whiteSpace=wrap;rounded=0;" parent="1" vertex="1">
          <mxGeometry x="650" y="320" width="115" height="30" as="geometry" />
        </mxCell>
        <mxCell id="GapU7UESEBE7MIA_pE_8-22" value="" style="endArrow=classic;html=1;rounded=0;exitX=1;exitY=0.5;exitDx=0;exitDy=0;entryX=0.5;entryY=0;entryDx=0;entryDy=0;" parent="1" source="GapU7UESEBE7MIA_pE_8-12" target="GapU7UESEBE7MIA_pE_8-18" edge="1">
          <mxGeometry width="50" height="50" relative="1" as="geometry">
            <mxPoint x="530" y="490" as="sourcePoint" />
            <mxPoint x="490" y="400" as="targetPoint" />
          </mxGeometry>
        </mxCell>
        <mxCell id="GapU7UESEBE7MIA_pE_8-23" value="" style="endArrow=classic;html=1;rounded=0;exitX=0;exitY=0.5;exitDx=0;exitDy=0;" parent="1" source="GapU7UESEBE7MIA_pE_8-2" edge="1">
          <mxGeometry width="50" height="50" relative="1" as="geometry">
            <mxPoint x="160" y="220" as="sourcePoint" />
            <mxPoint x="200" y="240" as="targetPoint" />
            <Array as="points">
              <mxPoint x="200" y="120" />
            </Array>
          </mxGeometry>
        </mxCell>
        <mxCell id="GapU7UESEBE7MIA_pE_8-24" value="Display Create Account" style="rounded=1;whiteSpace=wrap;html=1;" parent="1" vertex="1">
          <mxGeometry x="140" y="240" width="120" height="50" as="geometry" />
        </mxCell>
        <mxCell id="GapU7UESEBE7MIA_pE_8-25" value="Account Creation Selected" style="text;html=1;strokeColor=none;fillColor=none;align=center;verticalAlign=middle;whiteSpace=wrap;rounded=0;" parent="1" vertex="1">
          <mxGeometry x="160" y="90" width="110" height="30" as="geometry" />
        </mxCell>
        <mxCell id="GapU7UESEBE7MIA_pE_8-26" value="" style="endArrow=classic;html=1;rounded=0;exitX=0.5;exitY=1;exitDx=0;exitDy=0;entryX=0.5;entryY=0;entryDx=0;entryDy=0;" parent="1" source="GapU7UESEBE7MIA_pE_8-24" target="GapU7UESEBE7MIA_pE_8-27" edge="1">
          <mxGeometry width="50" height="50" relative="1" as="geometry">
            <mxPoint x="170" y="400" as="sourcePoint" />
            <mxPoint x="200" y="360" as="targetPoint" />
          </mxGeometry>
        </mxCell>
        <mxCell id="GapU7UESEBE7MIA_pE_8-27" value="Waiting For New Account Info" style="rounded=1;whiteSpace=wrap;html=1;" parent="1" vertex="1">
          <mxGeometry x="140" y="370" width="120" height="50" as="geometry" />
        </mxCell>
        <mxCell id="GapU7UESEBE7MIA_pE_8-28" value="Validate Info and Create Account" style="text;html=1;strokeColor=none;fillColor=none;align=center;verticalAlign=middle;whiteSpace=wrap;rounded=0;" parent="1" vertex="1">
          <mxGeometry x="196" y="441" width="90" height="30" as="geometry" />
        </mxCell>
        <mxCell id="GapU7UESEBE7MIA_pE_8-29" value="Display Account Creation Screen" style="text;html=1;strokeColor=none;fillColor=none;align=center;verticalAlign=middle;whiteSpace=wrap;rounded=0;" parent="1" vertex="1">
          <mxGeometry x="100" y="310" width="90" height="30" as="geometry" />
        </mxCell>
        <mxCell id="GapU7UESEBE7MIA_pE_8-30" value="Account Created" style="rounded=1;whiteSpace=wrap;html=1;" parent="1" vertex="1">
          <mxGeometry x="145" y="500" width="110" height="60" as="geometry" />
        </mxCell>
        <mxCell id="GapU7UESEBE7MIA_pE_8-31" value="" style="endArrow=classic;html=1;rounded=0;exitX=0.5;exitY=1;exitDx=0;exitDy=0;entryX=0.5;entryY=0;entryDx=0;entryDy=0;" parent="1" source="GapU7UESEBE7MIA_pE_8-27" target="GapU7UESEBE7MIA_pE_8-30" edge="1">
          <mxGeometry width="50" height="50" relative="1" as="geometry">
            <mxPoint x="210" y="490" as="sourcePoint" />
            <mxPoint x="260" y="440" as="targetPoint" />
          </mxGeometry>
        </mxCell>
        <mxCell id="GapU7UESEBE7MIA_pE_8-32" value="" style="endArrow=classic;html=1;rounded=0;exitX=0.5;exitY=1;exitDx=0;exitDy=0;entryX=0;entryY=0.5;entryDx=0;entryDy=0;" parent="1" source="GapU7UESEBE7MIA_pE_8-30" target="GapU7UESEBE7MIA_pE_8-9" edge="1">
          <mxGeometry width="50" height="50" relative="1" as="geometry">
            <mxPoint x="270" y="670" as="sourcePoint" />
            <mxPoint x="290" y="550" as="targetPoint" />
            <Array as="points">
              <mxPoint x="200" y="580" />
              <mxPoint x="280" y="580" />
              <mxPoint x="280" y="530" />
            </Array>
          </mxGeometry>
        </mxCell>
        <mxCell id="GapU7UESEBE7MIA_pE_8-33" value="Account successfully created, display home menu" style="text;html=1;strokeColor=none;fillColor=none;align=center;verticalAlign=middle;whiteSpace=wrap;rounded=0;" parent="1" vertex="1">
          <mxGeometry x="170" y="588" width="140" height="30" as="geometry" />
        </mxCell>
        <mxCell id="GapU7UESEBE7MIA_pE_8-34" value="" style="endArrow=classic;html=1;rounded=0;exitX=0;exitY=0.5;exitDx=0;exitDy=0;entryX=0;entryY=0.5;entryDx=0;entryDy=0;" parent="1" source="GapU7UESEBE7MIA_pE_8-30" target="GapU7UESEBE7MIA_pE_8-27" edge="1">
          <mxGeometry width="50" height="50" relative="1" as="geometry">
            <mxPoint x="60" y="560" as="sourcePoint" />
            <mxPoint x="90" y="400" as="targetPoint" />
            <Array as="points">
              <mxPoint x="90" y="530" />
              <mxPoint x="90" y="395" />
            </Array>
          </mxGeometry>
        </mxCell>
        <mxCell id="GapU7UESEBE7MIA_pE_8-35" value="Invalid Info, Ask Again" style="text;html=1;strokeColor=none;fillColor=none;align=center;verticalAlign=middle;whiteSpace=wrap;rounded=0;" parent="1" vertex="1">
          <mxGeometry x="92" y="444" width="60" height="30" as="geometry" />
        </mxCell>
        <mxCell id="GapU7UESEBE7MIA_pE_8-36" value="" style="endArrow=classic;html=1;rounded=0;entryX=1;entryY=0.5;entryDx=0;entryDy=0;" parent="1" source="GapU7UESEBE7MIA_pE_8-19" target="GapU7UESEBE7MIA_pE_8-40" edge="1">
          <mxGeometry width="50" height="50" relative="1" as="geometry">
            <mxPoint x="650" y="520" as="sourcePoint" />
            <mxPoint x="540" y="530" as="targetPoint" />
            <Array as="points">
              <mxPoint x="650" y="530" />
            </Array>
          </mxGeometry>
        </mxCell>
        <mxCell id="GapU7UESEBE7MIA_pE_8-37" value="Valid Credentials, Display Home menu with admin features" style="text;html=1;strokeColor=none;fillColor=none;align=center;verticalAlign=middle;whiteSpace=wrap;rounded=0;" parent="1" vertex="1">
          <mxGeometry x="575" y="541" width="150" height="30" as="geometry" />
        </mxCell>
        <mxCell id="GapU7UESEBE7MIA_pE_8-38" value="" style="endArrow=classic;html=1;rounded=0;exitX=0;exitY=0.5;exitDx=0;exitDy=0;" parent="1" source="GapU7UESEBE7MIA_pE_8-19" edge="1">
          <mxGeometry width="50" height="50" relative="1" as="geometry">
            <mxPoint x="510" y="420" as="sourcePoint" />
            <mxPoint x="500" y="400" as="targetPoint" />
          </mxGeometry>
        </mxCell>
        <mxCell id="GapU7UESEBE7MIA_pE_8-39" value="IDLE" style="rounded=1;whiteSpace=wrap;html=1;" parent="1" vertex="1">
          <mxGeometry x="300" y="560" width="120" height="20" as="geometry" />
        </mxCell>
        <mxCell id="GapU7UESEBE7MIA_pE_8-40" value="Display Home Menu&lt;br&gt;*admin features*" style="rounded=1;whiteSpace=wrap;html=1;" parent="1" vertex="1">
          <mxGeometry x="450" y="500" width="120" height="60" as="geometry" />
        </mxCell>
        <mxCell id="GapU7UESEBE7MIA_pE_8-41" value="IDLE" style="rounded=1;whiteSpace=wrap;html=1;" parent="1" vertex="1">
          <mxGeometry x="450" y="560" width="120" height="20" as="geometry" />
        </mxCell>
        <mxCell id="GapU7UESEBE7MIA_pE_8-46" value="Display View Podcasts Screen" style="rounded=1;whiteSpace=wrap;html=1;" parent="1" vertex="1">
          <mxGeometry x="200" y="810" width="120" height="60" as="geometry" />
        </mxCell>
        <mxCell id="GapU7UESEBE7MIA_pE_8-47" value="" style="endArrow=classic;html=1;rounded=0;exitX=0.5;exitY=1;exitDx=0;exitDy=0;" parent="1" source="GapU7UESEBE7MIA_pE_8-39" edge="1">
          <mxGeometry width="50" height="50" relative="1" as="geometry">
            <mxPoint x="333" y="750" as="sourcePoint" />
            <mxPoint x="260" y="680" as="targetPoint" />
            <Array as="points">
              <mxPoint x="360" y="680" />
            </Array>
          </mxGeometry>
        </mxCell>
        <mxCell id="GapU7UESEBE7MIA_pE_8-48" value="IDLE" style="rounded=1;whiteSpace=wrap;html=1;" parent="1" vertex="1">
          <mxGeometry x="200" y="780" width="120" height="30" as="geometry" />
        </mxCell>
        <mxCell id="GapU7UESEBE7MIA_pE_8-49" value="View &lt;br&gt;Podcasts Selected" style="text;html=1;strokeColor=none;fillColor=none;align=center;verticalAlign=middle;whiteSpace=wrap;rounded=0;" parent="1" vertex="1">
          <mxGeometry x="241" y="736" width="98" height="30" as="geometry" />
        </mxCell>
        <mxCell id="GapU7UESEBE7MIA_pE_8-50" value="Display View All Users Podcasts Screen" style="rounded=1;whiteSpace=wrap;html=1;" parent="1" vertex="1">
          <mxGeometry x="550" y="810" width="120" height="60" as="geometry" />
        </mxCell>
        <mxCell id="GapU7UESEBE7MIA_pE_8-51" value="IDLE" style="rounded=1;whiteSpace=wrap;html=1;" parent="1" vertex="1">
          <mxGeometry x="550" y="780" width="120" height="30" as="geometry" />
        </mxCell>
        <mxCell id="GapU7UESEBE7MIA_pE_8-52" value="View All Podcasts Selected" style="text;html=1;strokeColor=none;fillColor=none;align=center;verticalAlign=middle;whiteSpace=wrap;rounded=0;" parent="1" vertex="1">
          <mxGeometry x="547" y="733" width="60" height="30" as="geometry" />
        </mxCell>
        <mxCell id="GapU7UESEBE7MIA_pE_8-56" value="Finished Viewing" style="text;html=1;strokeColor=none;fillColor=none;align=center;verticalAlign=middle;whiteSpace=wrap;rounded=0;" parent="1" vertex="1">
          <mxGeometry x="326" y="791" width="60" height="30" as="geometry" />
        </mxCell>
        <mxCell id="GapU7UESEBE7MIA_pE_8-57" value="Finished Viewing" style="text;html=1;strokeColor=none;fillColor=none;align=center;verticalAlign=middle;whiteSpace=wrap;rounded=0;" parent="1" vertex="1">
          <mxGeometry x="488" y="808" width="60" height="30" as="geometry" />
        </mxCell>
        <mxCell id="GapU7UESEBE7MIA_pE_8-59" value="" style="endArrow=classic;html=1;rounded=0;exitX=0.5;exitY=1;exitDx=0;exitDy=0;" parent="1" source="GapU7UESEBE7MIA_pE_8-41" edge="1">
          <mxGeometry width="50" height="50" relative="1" as="geometry">
            <mxPoint x="580" y="680" as="sourcePoint" />
            <mxPoint x="840" y="680" as="targetPoint" />
            <Array as="points">
              <mxPoint x="510" y="680" />
            </Array>
          </mxGeometry>
        </mxCell>
        <mxCell id="GapU7UESEBE7MIA_pE_8-63" value="" style="endArrow=classic;html=1;rounded=0;entryX=0.5;entryY=0;entryDx=0;entryDy=0;" parent="1" target="GapU7UESEBE7MIA_pE_8-48" edge="1">
          <mxGeometry width="50" height="50" relative="1" as="geometry">
            <mxPoint x="260" y="680" as="sourcePoint" />
            <mxPoint x="350" y="700" as="targetPoint" />
          </mxGeometry>
        </mxCell>
        <mxCell id="GapU7UESEBE7MIA_pE_8-64" value="" style="endArrow=classic;html=1;rounded=0;exitX=1;exitY=0.25;exitDx=0;exitDy=0;" parent="1" source="GapU7UESEBE7MIA_pE_8-46" edge="1">
          <mxGeometry width="50" height="50" relative="1" as="geometry">
            <mxPoint x="350" y="830" as="sourcePoint" />
            <mxPoint x="390" y="825" as="targetPoint" />
          </mxGeometry>
        </mxCell>
        <mxCell id="GapU7UESEBE7MIA_pE_8-65" value="" style="endArrow=classic;html=1;rounded=0;entryX=0.75;entryY=1;entryDx=0;entryDy=0;" parent="1" target="GapU7UESEBE7MIA_pE_8-39" edge="1">
          <mxGeometry width="50" height="50" relative="1" as="geometry">
            <mxPoint x="390" y="820" as="sourcePoint" />
            <mxPoint x="460" y="950" as="targetPoint" />
          </mxGeometry>
        </mxCell>
        <mxCell id="GapU7UESEBE7MIA_pE_8-66" value="" style="endArrow=classic;html=1;rounded=0;entryX=0.25;entryY=1;entryDx=0;entryDy=0;" parent="1" target="GapU7UESEBE7MIA_pE_8-41" edge="1">
          <mxGeometry width="50" height="50" relative="1" as="geometry">
            <mxPoint x="480" y="960" as="sourcePoint" />
            <mxPoint x="490" y="720" as="targetPoint" />
          </mxGeometry>
        </mxCell>
        <mxCell id="GapU7UESEBE7MIA_pE_8-67" value="" style="endArrow=classic;html=1;rounded=0;exitX=0;exitY=0.5;exitDx=0;exitDy=0;" parent="1" source="GapU7UESEBE7MIA_pE_8-50" edge="1">
          <mxGeometry width="50" height="50" relative="1" as="geometry">
            <mxPoint x="490" y="840" as="sourcePoint" />
            <mxPoint x="480" y="840" as="targetPoint" />
          </mxGeometry>
        </mxCell>
        <mxCell id="GapU7UESEBE7MIA_pE_8-68" style="edgeStyle=orthogonalEdgeStyle;rounded=0;orthogonalLoop=1;jettySize=auto;html=1;exitX=0.5;exitY=1;exitDx=0;exitDy=0;" parent="1" source="GapU7UESEBE7MIA_pE_8-57" target="GapU7UESEBE7MIA_pE_8-57" edge="1">
          <mxGeometry relative="1" as="geometry" />
        </mxCell>
        <mxCell id="GapU7UESEBE7MIA_pE_8-69" value="" style="endArrow=classic;html=1;rounded=0;entryX=0.5;entryY=0;entryDx=0;entryDy=0;" parent="1" target="GapU7UESEBE7MIA_pE_8-51" edge="1">
          <mxGeometry width="50" height="50" relative="1" as="geometry">
            <mxPoint x="610" y="680" as="sourcePoint" />
            <mxPoint x="720" y="690" as="targetPoint" />
          </mxGeometry>
        </mxCell>
        <mxCell id="GapU7UESEBE7MIA_pE_8-70" value="" style="endArrow=classic;html=1;rounded=0;" parent="1" edge="1">
          <mxGeometry width="50" height="50" relative="1" as="geometry">
            <mxPoint x="825" y="680" as="sourcePoint" />
            <mxPoint x="825" y="780" as="targetPoint" />
          </mxGeometry>
        </mxCell>
        <mxCell id="GapU7UESEBE7MIA_pE_8-71" value="View Users Selected" style="text;html=1;strokeColor=none;fillColor=none;align=center;verticalAlign=middle;whiteSpace=wrap;rounded=0;" parent="1" vertex="1">
          <mxGeometry x="737" y="728" width="110" height="30" as="geometry" />
        </mxCell>
        <mxCell id="GapU7UESEBE7MIA_pE_8-72" value="Display Users" style="rounded=1;whiteSpace=wrap;html=1;" parent="1" vertex="1">
          <mxGeometry x="765" y="810" width="120" height="60" as="geometry" />
        </mxCell>
        <mxCell id="GapU7UESEBE7MIA_pE_8-73" value="IDLE" style="rounded=1;whiteSpace=wrap;html=1;" parent="1" vertex="1">
          <mxGeometry x="765" y="780" width="120" height="30" as="geometry" />
        </mxCell>
        <mxCell id="GapU7UESEBE7MIA_pE_8-74" value="" style="endArrow=classic;html=1;rounded=0;exitX=0.5;exitY=1;exitDx=0;exitDy=0;entryX=0.5;entryY=0;entryDx=0;entryDy=0;" parent="1" source="GapU7UESEBE7MIA_pE_8-72" target="GapU7UESEBE7MIA_pE_8-75" edge="1">
          <mxGeometry width="50" height="50" relative="1" as="geometry">
            <mxPoint x="785" y="960" as="sourcePoint" />
            <mxPoint x="825" y="930" as="targetPoint" />
          </mxGeometry>
        </mxCell>
        <mxCell id="GapU7UESEBE7MIA_pE_8-75" value="Modify User" style="rounded=1;whiteSpace=wrap;html=1;" parent="1" vertex="1">
          <mxGeometry x="765" y="940" width="120" height="40" as="geometry" />
        </mxCell>
        <mxCell id="GapU7UESEBE7MIA_pE_8-76" value="User Selected to Modify" style="text;html=1;strokeColor=none;fillColor=none;align=center;verticalAlign=middle;whiteSpace=wrap;rounded=0;" parent="1" vertex="1">
          <mxGeometry x="819" y="888" width="110" height="30" as="geometry" />
        </mxCell>
        <mxCell id="GapU7UESEBE7MIA_pE_8-79" value="Finished&lt;br&gt;Viewing/Modifying" style="text;html=1;strokeColor=none;fillColor=none;align=center;verticalAlign=middle;whiteSpace=wrap;rounded=0;" parent="1" vertex="1">
          <mxGeometry x="619" y="924" width="110" height="30" as="geometry" />
        </mxCell>
        <mxCell id="GapU7UESEBE7MIA_pE_8-80" value="" style="endArrow=classic;html=1;rounded=0;exitX=0;exitY=0.5;exitDx=0;exitDy=0;" parent="1" source="GapU7UESEBE7MIA_pE_8-75" edge="1">
          <mxGeometry width="50" height="50" relative="1" as="geometry">
            <mxPoint x="680" y="940" as="sourcePoint" />
            <mxPoint x="480" y="960" as="targetPoint" />
          </mxGeometry>
        </mxCell>
        <mxCell id="GapU7UESEBE7MIA_pE_8-81" value="" style="endArrow=classic;html=1;rounded=0;exitX=0;exitY=0.5;exitDx=0;exitDy=0;" parent="1" source="GapU7UESEBE7MIA_pE_8-72" edge="1">
          <mxGeometry width="50" height="50" relative="1" as="geometry">
            <mxPoint x="700" y="900" as="sourcePoint" />
            <mxPoint x="730" y="960" as="targetPoint" />
            <Array as="points">
              <mxPoint x="730" y="840" />
            </Array>
          </mxGeometry>
        </mxCell>
        <mxCell id="GapU7UESEBE7MIA_pE_8-83" value="Confirming Deletion" style="whiteSpace=wrap;html=1;aspect=fixed;" parent="1" vertex="1">
          <mxGeometry x="220" y="940" width="80" height="80" as="geometry" />
        </mxCell>
        <mxCell id="GapU7UESEBE7MIA_pE_8-84" value="Delete Podcast &lt;br&gt;Action Selected" style="text;html=1;align=center;verticalAlign=middle;resizable=0;points=[];autosize=1;strokeColor=none;fillColor=none;" parent="1" vertex="1">
          <mxGeometry x="251" y="883" width="110" height="40" as="geometry" />
        </mxCell>
        <mxCell id="GapU7UESEBE7MIA_pE_8-88" value="Delete Podcast" style="whiteSpace=wrap;html=1;aspect=fixed;" parent="1" vertex="1">
          <mxGeometry x="220" y="1080" width="80" height="80" as="geometry" />
        </mxCell>
        <mxCell id="GapU7UESEBE7MIA_pE_8-89" value="Deletion &lt;br&gt;Confirmed" style="text;html=1;align=center;verticalAlign=middle;resizable=0;points=[];autosize=1;strokeColor=none;fillColor=none;" parent="1" vertex="1">
          <mxGeometry x="251" y="1027" width="80" height="40" as="geometry" />
        </mxCell>
        <mxCell id="GapU7UESEBE7MIA_pE_8-91" value="" style="endArrow=classic;html=1;rounded=0;exitX=0.5;exitY=1;exitDx=0;exitDy=0;entryX=0.5;entryY=0;entryDx=0;entryDy=0;" parent="1" source="GapU7UESEBE7MIA_pE_8-46" target="GapU7UESEBE7MIA_pE_8-83" edge="1">
          <mxGeometry width="50" height="50" relative="1" as="geometry">
            <mxPoint x="265" y="880" as="sourcePoint" />
            <mxPoint x="415" y="758" as="targetPoint" />
          </mxGeometry>
        </mxCell>
        <mxCell id="GapU7UESEBE7MIA_pE_8-92" value="" style="endArrow=classic;html=1;rounded=0;exitX=0.5;exitY=1;exitDx=0;exitDy=0;entryX=0.5;entryY=0;entryDx=0;entryDy=0;" parent="1" source="GapU7UESEBE7MIA_pE_8-83" target="GapU7UESEBE7MIA_pE_8-88" edge="1">
          <mxGeometry width="50" height="50" relative="1" as="geometry">
            <mxPoint x="490" y="898" as="sourcePoint" />
            <mxPoint x="540" y="848" as="targetPoint" />
          </mxGeometry>
        </mxCell>
        <mxCell id="GapU7UESEBE7MIA_pE_8-93" value="" style="endArrow=classic;html=1;rounded=0;exitX=0;exitY=0.5;exitDx=0;exitDy=0;entryX=0.25;entryY=1;entryDx=0;entryDy=0;" parent="1" source="GapU7UESEBE7MIA_pE_8-88" target="GapU7UESEBE7MIA_pE_8-46" edge="1">
          <mxGeometry width="50" height="50" relative="1" as="geometry">
            <mxPoint x="330" y="1260" as="sourcePoint" />
            <mxPoint x="380" y="1210" as="targetPoint" />
            <Array as="points">
              <mxPoint x="160" y="1120" />
              <mxPoint x="160" y="900" />
              <mxPoint x="230" y="900" />
            </Array>
          </mxGeometry>
        </mxCell>
        <mxCell id="GapU7UESEBE7MIA_pE_8-94" value="Deleted, Go back to view" style="text;html=1;strokeColor=none;fillColor=none;align=center;verticalAlign=middle;whiteSpace=wrap;rounded=0;" parent="1" vertex="1">
          <mxGeometry x="155" y="1083" width="60" height="30" as="geometry" />
        </mxCell>
        <mxCell id="GapU7UESEBE7MIA_pE_8-96" value="" style="endArrow=classic;html=1;rounded=0;exitX=0;exitY=0.5;exitDx=0;exitDy=0;" parent="1" source="GapU7UESEBE7MIA_pE_8-83" edge="1">
          <mxGeometry width="50" height="50" relative="1" as="geometry">
            <mxPoint x="190" y="1010" as="sourcePoint" />
            <mxPoint x="161" y="980" as="targetPoint" />
          </mxGeometry>
        </mxCell>
        <mxCell id="GapU7UESEBE7MIA_pE_8-97" value="Failed to Confirm" style="text;html=1;strokeColor=none;fillColor=none;align=center;verticalAlign=middle;whiteSpace=wrap;rounded=0;" parent="1" vertex="1">
          <mxGeometry x="158" y="947" width="60" height="30" as="geometry" />
        </mxCell>
        <mxCell id="GapU7UESEBE7MIA_pE_8-98" style="edgeStyle=orthogonalEdgeStyle;rounded=0;orthogonalLoop=1;jettySize=auto;html=1;exitX=0;exitY=0.75;exitDx=0;exitDy=0;entryX=0.5;entryY=0;entryDx=0;entryDy=0;" parent="1" source="GapU7UESEBE7MIA_pE_8-46" target="GapU7UESEBE7MIA_pE_8-103" edge="1">
          <mxGeometry relative="1" as="geometry">
            <mxPoint x="70" y="940" as="targetPoint" />
            <mxPoint x="70" y="840" as="sourcePoint" />
          </mxGeometry>
        </mxCell>
        <mxCell id="GapU7UESEBE7MIA_pE_8-99" value="Edit &lt;br&gt;Podcast &lt;br&gt;Selected" style="text;html=1;align=center;verticalAlign=middle;resizable=0;points=[];autosize=1;strokeColor=none;fillColor=none;" parent="1" vertex="1">
          <mxGeometry x="-10" y="855" width="70" height="60" as="geometry" />
        </mxCell>
        <mxCell id="GapU7UESEBE7MIA_pE_8-103" value="Redirecting to External Editing Application" style="whiteSpace=wrap;html=1;aspect=fixed;" parent="1" vertex="1">
          <mxGeometry x="-40" y="940" width="80" height="80" as="geometry" />
        </mxCell>
        <mxCell id="GapU7UESEBE7MIA_pE_8-105" value="" style="endArrow=classic;html=1;rounded=0;exitX=0;exitY=0.5;exitDx=0;exitDy=0;entryX=0;entryY=0.25;entryDx=0;entryDy=0;" parent="1" source="GapU7UESEBE7MIA_pE_8-103" target="GapU7UESEBE7MIA_pE_8-46" edge="1">
          <mxGeometry width="50" height="50" relative="1" as="geometry">
            <mxPoint x="-40" y="1020" as="sourcePoint" />
            <mxPoint x="30" y="810" as="targetPoint" />
            <Array as="points">
              <mxPoint x="-100" y="980" />
              <mxPoint x="-100" y="825" />
            </Array>
          </mxGeometry>
        </mxCell>
        <mxCell id="GapU7UESEBE7MIA_pE_8-106" value="User Returns to Application" style="text;html=1;strokeColor=none;fillColor=none;align=center;verticalAlign=middle;whiteSpace=wrap;rounded=0;" parent="1" vertex="1">
          <mxGeometry x="-28" y="791" width="120" height="30" as="geometry" />
        </mxCell>
        <mxCell id="GapU7UESEBE7MIA_pE_8-108" value="" style="edgeStyle=orthogonalEdgeStyle;rounded=0;orthogonalLoop=1;jettySize=auto;html=1;" parent="1" source="GapU7UESEBE7MIA_pE_8-109" target="GapU7UESEBE7MIA_pE_8-113" edge="1">
          <mxGeometry relative="1" as="geometry" />
        </mxCell>
        <mxCell id="GapU7UESEBE7MIA_pE_8-109" value="Display Social Media Sites" style="whiteSpace=wrap;html=1;aspect=fixed;" parent="1" vertex="1">
          <mxGeometry x="50" y="940" width="80" height="80" as="geometry" />
        </mxCell>
        <mxCell id="GapU7UESEBE7MIA_pE_8-110" value="Upload&lt;br&gt;to &lt;br&gt;Social &lt;br&gt;Media&lt;br&gt;Selected" style="text;html=1;align=center;verticalAlign=middle;resizable=0;points=[];autosize=1;strokeColor=none;fillColor=none;" parent="1" vertex="1">
          <mxGeometry x="80" y="851" width="70" height="90" as="geometry" />
        </mxCell>
        <mxCell id="GapU7UESEBE7MIA_pE_8-111" value="Site &lt;br&gt;Selected" style="text;html=1;align=center;verticalAlign=middle;resizable=0;points=[];autosize=1;strokeColor=none;fillColor=none;" parent="1" vertex="1">
          <mxGeometry x="28" y="1041" width="70" height="40" as="geometry" />
        </mxCell>
        <mxCell id="GapU7UESEBE7MIA_pE_8-112" style="edgeStyle=orthogonalEdgeStyle;rounded=0;orthogonalLoop=1;jettySize=auto;html=1;" parent="1" source="GapU7UESEBE7MIA_pE_8-113" edge="1">
          <mxGeometry relative="1" as="geometry">
            <mxPoint x="-100" y="980" as="targetPoint" />
          </mxGeometry>
        </mxCell>
        <mxCell id="GapU7UESEBE7MIA_pE_8-113" value="Uploading Podcasts" style="whiteSpace=wrap;html=1;aspect=fixed;" parent="1" vertex="1">
          <mxGeometry x="50" y="1100" width="80" height="80" as="geometry" />
        </mxCell>
        <mxCell id="GapU7UESEBE7MIA_pE_8-114" value="Acknowledge&lt;br&gt;Upload" style="text;html=1;align=center;verticalAlign=middle;resizable=0;points=[];autosize=1;strokeColor=none;fillColor=none;" parent="1" vertex="1">
          <mxGeometry x="-105" y="1102" width="90" height="40" as="geometry" />
        </mxCell>
        <mxCell id="GapU7UESEBE7MIA_pE_8-115" value="" style="endArrow=classic;html=1;rounded=0;entryX=0.5;entryY=0;entryDx=0;entryDy=0;" parent="1" target="GapU7UESEBE7MIA_pE_8-109" edge="1">
          <mxGeometry width="50" height="50" relative="1" as="geometry">
            <mxPoint x="89" y="855" as="sourcePoint" />
            <mxPoint x="90" y="1000" as="targetPoint" />
          </mxGeometry>
        </mxCell>
        <mxCell id="GapU7UESEBE7MIA_pE_8-120" value="Vaildating Podcast" style="whiteSpace=wrap;html=1;aspect=fixed;" parent="1" vertex="1">
          <mxGeometry x="378" y="1083" width="80" height="80" as="geometry" />
        </mxCell>
        <mxCell id="GapU7UESEBE7MIA_pE_8-124" value="Display Save Locations" style="whiteSpace=wrap;html=1;aspect=fixed;" parent="1" vertex="1">
          <mxGeometry x="378" y="1230" width="80" height="80" as="geometry" />
        </mxCell>
        <mxCell id="GapU7UESEBE7MIA_pE_8-131" value="" style="endArrow=classic;html=1;rounded=0;exitX=1;exitY=0.75;exitDx=0;exitDy=0;entryX=0.5;entryY=0;entryDx=0;entryDy=0;" parent="1" source="GapU7UESEBE7MIA_pE_8-46" target="GapU7UESEBE7MIA_pE_8-133" edge="1">
          <mxGeometry width="50" height="50" relative="1" as="geometry">
            <mxPoint x="390" y="990" as="sourcePoint" />
            <mxPoint x="480" y="1070" as="targetPoint" />
            <Array as="points">
              <mxPoint x="418" y="855" />
            </Array>
          </mxGeometry>
        </mxCell>
        <mxCell id="GapU7UESEBE7MIA_pE_8-132" value="Upload Podcast&amp;nbsp;&lt;br&gt;Selected" style="text;html=1;strokeColor=none;fillColor=none;align=center;verticalAlign=middle;whiteSpace=wrap;rounded=0;" parent="1" vertex="1">
          <mxGeometry x="361" y="863" width="60" height="30" as="geometry" />
        </mxCell>
        <mxCell id="GapU7UESEBE7MIA_pE_8-133" value="Display Select Podcast Screen" style="whiteSpace=wrap;html=1;aspect=fixed;" parent="1" vertex="1">
          <mxGeometry x="378" y="947" width="80" height="80" as="geometry" />
        </mxCell>
        <mxCell id="GapU7UESEBE7MIA_pE_8-134" value="" style="endArrow=classic;html=1;rounded=0;exitX=0.5;exitY=1;exitDx=0;exitDy=0;entryX=0.5;entryY=0;entryDx=0;entryDy=0;" parent="1" source="GapU7UESEBE7MIA_pE_8-133" target="GapU7UESEBE7MIA_pE_8-120" edge="1">
          <mxGeometry width="50" height="50" relative="1" as="geometry">
            <mxPoint x="550" y="1060" as="sourcePoint" />
            <mxPoint x="600" y="1010" as="targetPoint" />
          </mxGeometry>
        </mxCell>
        <mxCell id="GapU7UESEBE7MIA_pE_8-135" value="Podcast&lt;br&gt;Selected" style="text;html=1;strokeColor=none;fillColor=none;align=center;verticalAlign=middle;whiteSpace=wrap;rounded=0;" parent="1" vertex="1">
          <mxGeometry x="415" y="1040" width="60" height="30" as="geometry" />
        </mxCell>
        <mxCell id="GapU7UESEBE7MIA_pE_8-136" value="" style="endArrow=classic;html=1;rounded=0;exitX=0.5;exitY=1;exitDx=0;exitDy=0;" parent="1" source="GapU7UESEBE7MIA_pE_8-120" target="GapU7UESEBE7MIA_pE_8-124" edge="1">
          <mxGeometry width="50" height="50" relative="1" as="geometry">
            <mxPoint x="460" y="1240" as="sourcePoint" />
            <mxPoint x="510" y="1190" as="targetPoint" />
          </mxGeometry>
        </mxCell>
        <mxCell id="GapU7UESEBE7MIA_pE_8-137" value="Valid Podcast" style="text;html=1;strokeColor=none;fillColor=none;align=center;verticalAlign=middle;whiteSpace=wrap;rounded=0;" parent="1" vertex="1">
          <mxGeometry x="415" y="1180" width="60" height="30" as="geometry" />
        </mxCell>
        <mxCell id="GapU7UESEBE7MIA_pE_8-138" value="" style="endArrow=classic;html=1;rounded=0;exitX=0.5;exitY=1;exitDx=0;exitDy=0;" parent="1" source="GapU7UESEBE7MIA_pE_8-124" edge="1">
          <mxGeometry width="50" height="50" relative="1" as="geometry">
            <mxPoint x="410" y="1400" as="sourcePoint" />
            <mxPoint x="418" y="1400" as="targetPoint" />
          </mxGeometry>
        </mxCell>
        <mxCell id="GapU7UESEBE7MIA_pE_8-139" value="Upload File" style="rounded=0;whiteSpace=wrap;html=1;" parent="1" vertex="1">
          <mxGeometry x="380.5" y="1400" width="75" height="60" as="geometry" />
        </mxCell>
        <mxCell id="GapU7UESEBE7MIA_pE_8-140" value="Location Selected" style="text;html=1;strokeColor=none;fillColor=none;align=center;verticalAlign=middle;whiteSpace=wrap;rounded=0;" parent="1" vertex="1">
          <mxGeometry x="422" y="1336" width="60" height="30" as="geometry" />
        </mxCell>
        <mxCell id="GapU7UESEBE7MIA_pE_8-141" value="" style="endArrow=classic;html=1;rounded=0;exitX=1;exitY=0.5;exitDx=0;exitDy=0;entryX=1;entryY=0.5;entryDx=0;entryDy=0;" parent="1" source="GapU7UESEBE7MIA_pE_8-139" target="GapU7UESEBE7MIA_pE_8-124" edge="1">
          <mxGeometry width="50" height="50" relative="1" as="geometry">
            <mxPoint x="520" y="1430" as="sourcePoint" />
            <mxPoint x="570" y="1380" as="targetPoint" />
            <Array as="points">
              <mxPoint x="520" y="1430" />
              <mxPoint x="520" y="1270" />
            </Array>
          </mxGeometry>
        </mxCell>
        <mxCell id="GapU7UESEBE7MIA_pE_8-142" value="Upload Error" style="text;html=1;strokeColor=none;fillColor=none;align=center;verticalAlign=middle;whiteSpace=wrap;rounded=0;" parent="1" vertex="1">
          <mxGeometry x="469" y="1272" width="60" height="30" as="geometry" />
        </mxCell>
        <mxCell id="GapU7UESEBE7MIA_pE_8-143" value="" style="endArrow=classic;html=1;rounded=0;exitX=0;exitY=0.5;exitDx=0;exitDy=0;entryX=0.041;entryY=0.996;entryDx=0;entryDy=0;entryPerimeter=0;" parent="1" source="GapU7UESEBE7MIA_pE_8-139" target="GapU7UESEBE7MIA_pE_8-114" edge="1">
          <mxGeometry width="50" height="50" relative="1" as="geometry">
            <mxPoint x="210" y="1440" as="sourcePoint" />
            <mxPoint x="260" y="1390" as="targetPoint" />
            <Array as="points">
              <mxPoint x="-101" y="1430" />
            </Array>
          </mxGeometry>
        </mxCell>
        <mxCell id="GapU7UESEBE7MIA_pE_8-144" value="Upload Success" style="text;html=1;strokeColor=none;fillColor=none;align=center;verticalAlign=middle;whiteSpace=wrap;rounded=0;" parent="1" vertex="1">
          <mxGeometry x="318" y="1400" width="60" height="30" as="geometry" />
        </mxCell>
        <mxCell id="GapU7UESEBE7MIA_pE_8-145" value="" style="endArrow=classic;html=1;rounded=0;exitX=1;exitY=0.5;exitDx=0;exitDy=0;entryX=1;entryY=0.5;entryDx=0;entryDy=0;" parent="1" source="GapU7UESEBE7MIA_pE_8-120" target="GapU7UESEBE7MIA_pE_8-133" edge="1">
          <mxGeometry width="50" height="50" relative="1" as="geometry">
            <mxPoint x="560" y="1170" as="sourcePoint" />
            <mxPoint x="610" y="1120" as="targetPoint" />
            <Array as="points">
              <mxPoint x="500" y="1123" />
              <mxPoint x="500" y="987" />
            </Array>
          </mxGeometry>
        </mxCell>
        <mxCell id="GapU7UESEBE7MIA_pE_8-146" value="Invalid &lt;br&gt;File" style="text;html=1;strokeColor=none;fillColor=none;align=center;verticalAlign=middle;whiteSpace=wrap;rounded=0;" parent="1" vertex="1">
          <mxGeometry x="495" y="1036" width="60" height="30" as="geometry" />
        </mxCell>
        <mxCell id="GapU7UESEBE7MIA_pE_8-147" value="" style="endArrow=classic;html=1;rounded=0;exitX=0;exitY=0.5;exitDx=0;exitDy=0;entryX=1;entryY=0.5;entryDx=0;entryDy=0;" parent="1" source="GapU7UESEBE7MIA_pE_8-40" target="GapU7UESEBE7MIA_pE_8-9" edge="1">
          <mxGeometry width="50" height="50" relative="1" as="geometry">
            <mxPoint x="420" y="650" as="sourcePoint" />
            <mxPoint x="470" y="600" as="targetPoint" />
          </mxGeometry>
        </mxCell>
        <mxCell id="uRw01V18H7EWMKU9GlII-1" value="BEANSTALK&lt;br&gt;Cal Crosby, Ashton Stroud, Sarah Hardin, Jon Story" style="text;html=1;align=center;verticalAlign=middle;resizable=0;points=[];autosize=1;strokeColor=none;fillColor=none;" vertex="1" parent="1">
          <mxGeometry x="26" y="20" width="300" height="40" as="geometry" />
        </mxCell>
      </root>
    </mxGraphModel>
  </diagram>
</mxfile>
